<mxfile host="app.diagrams.net" modified="2023-11-11T07:17:12.252Z" agent="Mozilla/5.0 (Windows NT 10.0; Win64; x64) AppleWebKit/537.36 (KHTML, like Gecko) Chrome/119.0.0.0 Safari/537.36" etag="ufCO6rs0hY7Rvi43hIGa" version="22.1.0" type="device" pages="5">
  <diagram name="bai thực hành1" id="N-MZD2sVu6RuUP24bSH3">
    <mxGraphModel dx="740" dy="527" grid="1" gridSize="10" guides="1" tooltips="1" connect="1" arrows="1" fold="1" page="1" pageScale="1" pageWidth="827" pageHeight="1169" math="0" shadow="0">
      <root>
        <mxCell id="0" />
        <mxCell id="1" parent="0" />
        <mxCell id="ODRQ88rVwiduYgFjb9pg-3" style="edgeStyle=orthogonalEdgeStyle;rounded=0;orthogonalLoop=1;jettySize=auto;html=1;" parent="1" source="ODRQ88rVwiduYgFjb9pg-1" target="ODRQ88rVwiduYgFjb9pg-2" edge="1">
          <mxGeometry relative="1" as="geometry" />
        </mxCell>
        <mxCell id="ODRQ88rVwiduYgFjb9pg-1" value="start" style="ellipse;whiteSpace=wrap;html=1;" parent="1" vertex="1">
          <mxGeometry x="250" y="50" width="120" height="80" as="geometry" />
        </mxCell>
        <mxCell id="ODRQ88rVwiduYgFjb9pg-4" style="edgeStyle=orthogonalEdgeStyle;rounded=0;orthogonalLoop=1;jettySize=auto;html=1;" parent="1" source="ODRQ88rVwiduYgFjb9pg-2" edge="1">
          <mxGeometry relative="1" as="geometry">
            <mxPoint x="310" y="300" as="targetPoint" />
          </mxGeometry>
        </mxCell>
        <mxCell id="ODRQ88rVwiduYgFjb9pg-2" value="&amp;nbsp;nhập a,b,c" style="shape=parallelogram;perimeter=parallelogramPerimeter;whiteSpace=wrap;html=1;fixedSize=1;" parent="1" vertex="1">
          <mxGeometry x="250" y="180" width="120" height="60" as="geometry" />
        </mxCell>
        <mxCell id="ODRQ88rVwiduYgFjb9pg-8" style="edgeStyle=orthogonalEdgeStyle;rounded=0;orthogonalLoop=1;jettySize=auto;html=1;" parent="1" source="ODRQ88rVwiduYgFjb9pg-6" edge="1">
          <mxGeometry relative="1" as="geometry">
            <mxPoint x="310" y="450" as="targetPoint" />
          </mxGeometry>
        </mxCell>
        <mxCell id="ODRQ88rVwiduYgFjb9pg-6" value="delta= b^2 -4*a*c" style="rounded=0;whiteSpace=wrap;html=1;" parent="1" vertex="1">
          <mxGeometry x="220" y="300" width="180" height="100" as="geometry" />
        </mxCell>
        <mxCell id="ODRQ88rVwiduYgFjb9pg-9" style="edgeStyle=orthogonalEdgeStyle;rounded=0;orthogonalLoop=1;jettySize=auto;html=1;" parent="1" source="ODRQ88rVwiduYgFjb9pg-7" edge="1">
          <mxGeometry relative="1" as="geometry">
            <mxPoint x="510" y="525" as="targetPoint" />
          </mxGeometry>
        </mxCell>
        <mxCell id="ODRQ88rVwiduYgFjb9pg-11" value="true" style="edgeLabel;html=1;align=center;verticalAlign=middle;resizable=0;points=[];" parent="ODRQ88rVwiduYgFjb9pg-9" vertex="1" connectable="0">
          <mxGeometry x="-0.1711" relative="1" as="geometry">
            <mxPoint as="offset" />
          </mxGeometry>
        </mxCell>
        <mxCell id="ODRQ88rVwiduYgFjb9pg-10" style="edgeStyle=orthogonalEdgeStyle;rounded=0;orthogonalLoop=1;jettySize=auto;html=1;" parent="1" source="ODRQ88rVwiduYgFjb9pg-7" edge="1">
          <mxGeometry relative="1" as="geometry">
            <mxPoint x="310" y="680" as="targetPoint" />
          </mxGeometry>
        </mxCell>
        <mxCell id="ODRQ88rVwiduYgFjb9pg-12" value="false" style="edgeLabel;html=1;align=center;verticalAlign=middle;resizable=0;points=[];" parent="ODRQ88rVwiduYgFjb9pg-10" vertex="1" connectable="0">
          <mxGeometry x="-0.1354" y="2" relative="1" as="geometry">
            <mxPoint as="offset" />
          </mxGeometry>
        </mxCell>
        <mxCell id="ODRQ88rVwiduYgFjb9pg-7" value="delta &amp;gt;0" style="rhombus;whiteSpace=wrap;html=1;" parent="1" vertex="1">
          <mxGeometry x="220" y="450" width="180" height="150" as="geometry" />
        </mxCell>
        <mxCell id="ODRQ88rVwiduYgFjb9pg-14" style="edgeStyle=orthogonalEdgeStyle;rounded=0;orthogonalLoop=1;jettySize=auto;html=1;" parent="1" source="ODRQ88rVwiduYgFjb9pg-13" edge="1">
          <mxGeometry relative="1" as="geometry">
            <mxPoint x="310" y="840" as="targetPoint" />
          </mxGeometry>
        </mxCell>
        <mxCell id="ODRQ88rVwiduYgFjb9pg-16" value="false" style="edgeLabel;html=1;align=center;verticalAlign=middle;resizable=0;points=[];" parent="ODRQ88rVwiduYgFjb9pg-14" vertex="1" connectable="0">
          <mxGeometry x="-0.21" y="1" relative="1" as="geometry">
            <mxPoint as="offset" />
          </mxGeometry>
        </mxCell>
        <mxCell id="ODRQ88rVwiduYgFjb9pg-19" style="edgeStyle=orthogonalEdgeStyle;rounded=0;orthogonalLoop=1;jettySize=auto;html=1;entryX=0;entryY=0.5;entryDx=0;entryDy=0;" parent="1" source="ODRQ88rVwiduYgFjb9pg-13" target="ODRQ88rVwiduYgFjb9pg-18" edge="1">
          <mxGeometry relative="1" as="geometry" />
        </mxCell>
        <mxCell id="ODRQ88rVwiduYgFjb9pg-22" value="true" style="edgeLabel;html=1;align=center;verticalAlign=middle;resizable=0;points=[];" parent="ODRQ88rVwiduYgFjb9pg-19" vertex="1" connectable="0">
          <mxGeometry x="-0.14" relative="1" as="geometry">
            <mxPoint as="offset" />
          </mxGeometry>
        </mxCell>
        <mxCell id="ODRQ88rVwiduYgFjb9pg-13" value="delta=0" style="rhombus;whiteSpace=wrap;html=1;" parent="1" vertex="1">
          <mxGeometry x="270" y="680" width="80" height="80" as="geometry" />
        </mxCell>
        <mxCell id="ODRQ88rVwiduYgFjb9pg-21" style="edgeStyle=orthogonalEdgeStyle;rounded=0;orthogonalLoop=1;jettySize=auto;html=1;entryX=0;entryY=0.5;entryDx=0;entryDy=0;" parent="1" source="ODRQ88rVwiduYgFjb9pg-15" edge="1">
          <mxGeometry relative="1" as="geometry">
            <mxPoint x="510" y="880" as="targetPoint" />
          </mxGeometry>
        </mxCell>
        <mxCell id="ODRQ88rVwiduYgFjb9pg-23" value="true" style="edgeLabel;html=1;align=center;verticalAlign=middle;resizable=0;points=[];" parent="ODRQ88rVwiduYgFjb9pg-21" vertex="1" connectable="0">
          <mxGeometry x="-0.0525" y="1" relative="1" as="geometry">
            <mxPoint as="offset" />
          </mxGeometry>
        </mxCell>
        <mxCell id="ODRQ88rVwiduYgFjb9pg-15" value="delta&amp;lt;0" style="rhombus;whiteSpace=wrap;html=1;" parent="1" vertex="1">
          <mxGeometry x="270" y="840" width="80" height="80" as="geometry" />
        </mxCell>
        <mxCell id="ODRQ88rVwiduYgFjb9pg-31" style="edgeStyle=orthogonalEdgeStyle;rounded=0;orthogonalLoop=1;jettySize=auto;html=1;" parent="1" source="ODRQ88rVwiduYgFjb9pg-17" target="ODRQ88rVwiduYgFjb9pg-25" edge="1">
          <mxGeometry relative="1" as="geometry" />
        </mxCell>
        <mxCell id="ODRQ88rVwiduYgFjb9pg-17" value="x1= (-b+ sqrt delta)/2*a&lt;br&gt;x2= (-b- sqrt delta)/2*a" style="rounded=0;whiteSpace=wrap;html=1;" parent="1" vertex="1">
          <mxGeometry x="510" y="495" width="200" height="60" as="geometry" />
        </mxCell>
        <mxCell id="ODRQ88rVwiduYgFjb9pg-30" style="edgeStyle=orthogonalEdgeStyle;rounded=0;orthogonalLoop=1;jettySize=auto;html=1;" parent="1" source="ODRQ88rVwiduYgFjb9pg-18" target="ODRQ88rVwiduYgFjb9pg-27" edge="1">
          <mxGeometry relative="1" as="geometry" />
        </mxCell>
        <mxCell id="ODRQ88rVwiduYgFjb9pg-18" value="x1 = -b/2*a" style="rounded=0;whiteSpace=wrap;html=1;" parent="1" vertex="1">
          <mxGeometry x="510" y="690" width="120" height="60" as="geometry" />
        </mxCell>
        <mxCell id="ODRQ88rVwiduYgFjb9pg-34" style="edgeStyle=orthogonalEdgeStyle;rounded=0;orthogonalLoop=1;jettySize=auto;html=1;entryX=0.5;entryY=1;entryDx=0;entryDy=0;" parent="1" source="ODRQ88rVwiduYgFjb9pg-24" target="ODRQ88rVwiduYgFjb9pg-29" edge="1">
          <mxGeometry relative="1" as="geometry">
            <mxPoint x="1050" y="880" as="targetPoint" />
          </mxGeometry>
        </mxCell>
        <mxCell id="ODRQ88rVwiduYgFjb9pg-24" value="pt vô nghiệm" style="shape=parallelogram;perimeter=parallelogramPerimeter;whiteSpace=wrap;html=1;fixedSize=1;" parent="1" vertex="1">
          <mxGeometry x="500" y="850" width="120" height="60" as="geometry" />
        </mxCell>
        <mxCell id="ODRQ88rVwiduYgFjb9pg-36" style="edgeStyle=orthogonalEdgeStyle;rounded=0;orthogonalLoop=1;jettySize=auto;html=1;entryX=0.5;entryY=0;entryDx=0;entryDy=0;" parent="1" source="ODRQ88rVwiduYgFjb9pg-25" target="ODRQ88rVwiduYgFjb9pg-29" edge="1">
          <mxGeometry relative="1" as="geometry">
            <mxPoint x="1050" y="525" as="targetPoint" />
          </mxGeometry>
        </mxCell>
        <mxCell id="ODRQ88rVwiduYgFjb9pg-25" value="pt có 2 nghiệm phân biệt =x1; =x2" style="shape=parallelogram;perimeter=parallelogramPerimeter;whiteSpace=wrap;html=1;fixedSize=1;" parent="1" vertex="1">
          <mxGeometry x="750" y="495" width="220" height="60" as="geometry" />
        </mxCell>
        <mxCell id="ODRQ88rVwiduYgFjb9pg-33" style="edgeStyle=orthogonalEdgeStyle;rounded=0;orthogonalLoop=1;jettySize=auto;html=1;entryX=0;entryY=0.5;entryDx=0;entryDy=0;" parent="1" source="ODRQ88rVwiduYgFjb9pg-27" target="ODRQ88rVwiduYgFjb9pg-29" edge="1">
          <mxGeometry relative="1" as="geometry" />
        </mxCell>
        <mxCell id="ODRQ88rVwiduYgFjb9pg-27" value="pt có 2 nghiệm kép =x1=x2" style="shape=parallelogram;perimeter=parallelogramPerimeter;whiteSpace=wrap;html=1;fixedSize=1;" parent="1" vertex="1">
          <mxGeometry x="750" y="690" width="140" height="60" as="geometry" />
        </mxCell>
        <mxCell id="ODRQ88rVwiduYgFjb9pg-29" value="End" style="ellipse;whiteSpace=wrap;html=1;" parent="1" vertex="1">
          <mxGeometry x="990" y="680" width="120" height="80" as="geometry" />
        </mxCell>
      </root>
    </mxGraphModel>
  </diagram>
  <diagram id="ghrriiHEok3x8L6NUTM3" name="bài thực hành2">
    <mxGraphModel dx="740" dy="527" grid="1" gridSize="10" guides="1" tooltips="1" connect="1" arrows="1" fold="1" page="1" pageScale="1" pageWidth="827" pageHeight="1169" math="0" shadow="0">
      <root>
        <mxCell id="0" />
        <mxCell id="1" parent="0" />
        <mxCell id="QEWAOKEdLzfHGVJ29-9n-3" style="edgeStyle=orthogonalEdgeStyle;rounded=0;orthogonalLoop=1;jettySize=auto;html=1;entryX=0.5;entryY=0;entryDx=0;entryDy=0;" edge="1" parent="1" source="QEWAOKEdLzfHGVJ29-9n-1" target="QEWAOKEdLzfHGVJ29-9n-2">
          <mxGeometry relative="1" as="geometry" />
        </mxCell>
        <mxCell id="QEWAOKEdLzfHGVJ29-9n-1" value="start" style="ellipse;whiteSpace=wrap;html=1;" vertex="1" parent="1">
          <mxGeometry x="290" y="60" width="120" height="80" as="geometry" />
        </mxCell>
        <mxCell id="QEWAOKEdLzfHGVJ29-9n-7" style="edgeStyle=orthogonalEdgeStyle;rounded=0;orthogonalLoop=1;jettySize=auto;html=1;entryX=0.5;entryY=0;entryDx=0;entryDy=0;" edge="1" parent="1" source="QEWAOKEdLzfHGVJ29-9n-2" target="QEWAOKEdLzfHGVJ29-9n-4">
          <mxGeometry relative="1" as="geometry" />
        </mxCell>
        <mxCell id="QEWAOKEdLzfHGVJ29-9n-2" value="nhập doanh thu =x,&lt;br&gt;lãi=y" style="shape=parallelogram;perimeter=parallelogramPerimeter;whiteSpace=wrap;html=1;fixedSize=1;" vertex="1" parent="1">
          <mxGeometry x="280" y="330" width="140" height="60" as="geometry" />
        </mxCell>
        <mxCell id="QEWAOKEdLzfHGVJ29-9n-8" style="edgeStyle=orthogonalEdgeStyle;rounded=0;orthogonalLoop=1;jettySize=auto;html=1;entryX=0.5;entryY=0;entryDx=0;entryDy=0;" edge="1" parent="1" source="QEWAOKEdLzfHGVJ29-9n-4" target="QEWAOKEdLzfHGVJ29-9n-5">
          <mxGeometry relative="1" as="geometry" />
        </mxCell>
        <mxCell id="QEWAOKEdLzfHGVJ29-9n-9" value="false" style="edgeLabel;html=1;align=center;verticalAlign=middle;resizable=0;points=[];" vertex="1" connectable="0" parent="QEWAOKEdLzfHGVJ29-9n-8">
          <mxGeometry x="-0.176" relative="1" as="geometry">
            <mxPoint as="offset" />
          </mxGeometry>
        </mxCell>
        <mxCell id="QEWAOKEdLzfHGVJ29-9n-13" style="edgeStyle=orthogonalEdgeStyle;rounded=0;orthogonalLoop=1;jettySize=auto;html=1;entryX=0;entryY=0.5;entryDx=0;entryDy=0;" edge="1" parent="1" source="QEWAOKEdLzfHGVJ29-9n-4" target="QEWAOKEdLzfHGVJ29-9n-12">
          <mxGeometry relative="1" as="geometry" />
        </mxCell>
        <mxCell id="QEWAOKEdLzfHGVJ29-9n-22" value="true" style="edgeLabel;html=1;align=center;verticalAlign=middle;resizable=0;points=[];" vertex="1" connectable="0" parent="QEWAOKEdLzfHGVJ29-9n-13">
          <mxGeometry x="-0.12" y="-2" relative="1" as="geometry">
            <mxPoint as="offset" />
          </mxGeometry>
        </mxCell>
        <mxCell id="QEWAOKEdLzfHGVJ29-9n-4" value="x =&amp;lt; 100m" style="rhombus;whiteSpace=wrap;html=1;" vertex="1" parent="1">
          <mxGeometry x="280" y="420" width="140" height="80" as="geometry" />
        </mxCell>
        <mxCell id="QEWAOKEdLzfHGVJ29-9n-10" style="edgeStyle=orthogonalEdgeStyle;rounded=0;orthogonalLoop=1;jettySize=auto;html=1;entryX=0.5;entryY=0;entryDx=0;entryDy=0;" edge="1" parent="1" source="QEWAOKEdLzfHGVJ29-9n-5" target="QEWAOKEdLzfHGVJ29-9n-6">
          <mxGeometry relative="1" as="geometry" />
        </mxCell>
        <mxCell id="QEWAOKEdLzfHGVJ29-9n-11" value="false" style="edgeLabel;html=1;align=center;verticalAlign=middle;resizable=0;points=[];" vertex="1" connectable="0" parent="QEWAOKEdLzfHGVJ29-9n-10">
          <mxGeometry x="-0.1733" y="-2" relative="1" as="geometry">
            <mxPoint as="offset" />
          </mxGeometry>
        </mxCell>
        <mxCell id="QEWAOKEdLzfHGVJ29-9n-15" style="edgeStyle=orthogonalEdgeStyle;rounded=0;orthogonalLoop=1;jettySize=auto;html=1;entryX=0;entryY=0.5;entryDx=0;entryDy=0;" edge="1" parent="1" source="QEWAOKEdLzfHGVJ29-9n-5" target="QEWAOKEdLzfHGVJ29-9n-14">
          <mxGeometry relative="1" as="geometry" />
        </mxCell>
        <mxCell id="QEWAOKEdLzfHGVJ29-9n-23" value="true" style="edgeLabel;html=1;align=center;verticalAlign=middle;resizable=0;points=[];" vertex="1" connectable="0" parent="QEWAOKEdLzfHGVJ29-9n-15">
          <mxGeometry x="-0.22" y="-1" relative="1" as="geometry">
            <mxPoint as="offset" />
          </mxGeometry>
        </mxCell>
        <mxCell id="QEWAOKEdLzfHGVJ29-9n-5" value="100m&amp;lt;x =&amp;lt;300m" style="rhombus;whiteSpace=wrap;html=1;" vertex="1" parent="1">
          <mxGeometry x="280" y="550" width="140" height="105" as="geometry" />
        </mxCell>
        <mxCell id="QEWAOKEdLzfHGVJ29-9n-17" style="edgeStyle=orthogonalEdgeStyle;rounded=0;orthogonalLoop=1;jettySize=auto;html=1;entryX=0;entryY=0.5;entryDx=0;entryDy=0;" edge="1" parent="1" source="QEWAOKEdLzfHGVJ29-9n-6" target="QEWAOKEdLzfHGVJ29-9n-16">
          <mxGeometry relative="1" as="geometry" />
        </mxCell>
        <mxCell id="QEWAOKEdLzfHGVJ29-9n-25" value="true" style="edgeLabel;html=1;align=center;verticalAlign=middle;resizable=0;points=[];" vertex="1" connectable="0" parent="QEWAOKEdLzfHGVJ29-9n-17">
          <mxGeometry x="-0.04" relative="1" as="geometry">
            <mxPoint as="offset" />
          </mxGeometry>
        </mxCell>
        <mxCell id="QEWAOKEdLzfHGVJ29-9n-6" value="x&amp;gt;300m" style="rhombus;whiteSpace=wrap;html=1;" vertex="1" parent="1">
          <mxGeometry x="310" y="700" width="80" height="80" as="geometry" />
        </mxCell>
        <mxCell id="QEWAOKEdLzfHGVJ29-9n-27" style="edgeStyle=orthogonalEdgeStyle;rounded=0;orthogonalLoop=1;jettySize=auto;html=1;" edge="1" parent="1" source="QEWAOKEdLzfHGVJ29-9n-12" target="QEWAOKEdLzfHGVJ29-9n-19">
          <mxGeometry relative="1" as="geometry" />
        </mxCell>
        <mxCell id="QEWAOKEdLzfHGVJ29-9n-12" value="x*5% =y" style="rounded=0;whiteSpace=wrap;html=1;" vertex="1" parent="1">
          <mxGeometry x="460" y="430" width="120" height="60" as="geometry" />
        </mxCell>
        <mxCell id="QEWAOKEdLzfHGVJ29-9n-26" style="edgeStyle=orthogonalEdgeStyle;rounded=0;orthogonalLoop=1;jettySize=auto;html=1;entryX=0;entryY=0.5;entryDx=0;entryDy=0;" edge="1" parent="1" source="QEWAOKEdLzfHGVJ29-9n-14">
          <mxGeometry relative="1" as="geometry">
            <mxPoint x="630" y="602.5" as="targetPoint" />
          </mxGeometry>
        </mxCell>
        <mxCell id="QEWAOKEdLzfHGVJ29-9n-14" value="x*10%=y" style="rounded=0;whiteSpace=wrap;html=1;" vertex="1" parent="1">
          <mxGeometry x="460" y="572.5" width="120" height="60" as="geometry" />
        </mxCell>
        <mxCell id="QEWAOKEdLzfHGVJ29-9n-29" style="edgeStyle=orthogonalEdgeStyle;rounded=0;orthogonalLoop=1;jettySize=auto;html=1;entryX=0.5;entryY=1;entryDx=0;entryDy=0;" edge="1" parent="1" source="QEWAOKEdLzfHGVJ29-9n-16" target="QEWAOKEdLzfHGVJ29-9n-19">
          <mxGeometry relative="1" as="geometry">
            <mxPoint x="680" y="640" as="targetPoint" />
          </mxGeometry>
        </mxCell>
        <mxCell id="QEWAOKEdLzfHGVJ29-9n-16" value="x*20%=y" style="rounded=0;whiteSpace=wrap;html=1;" vertex="1" parent="1">
          <mxGeometry x="460" y="710" width="120" height="60" as="geometry" />
        </mxCell>
        <mxCell id="QEWAOKEdLzfHGVJ29-9n-31" style="edgeStyle=orthogonalEdgeStyle;rounded=0;orthogonalLoop=1;jettySize=auto;html=1;entryX=0;entryY=0.5;entryDx=0;entryDy=0;" edge="1" parent="1" source="QEWAOKEdLzfHGVJ29-9n-19" target="QEWAOKEdLzfHGVJ29-9n-30">
          <mxGeometry relative="1" as="geometry" />
        </mxCell>
        <mxCell id="QEWAOKEdLzfHGVJ29-9n-19" value="số tiền lãi là y" style="shape=parallelogram;perimeter=parallelogramPerimeter;whiteSpace=wrap;html=1;fixedSize=1;" vertex="1" parent="1">
          <mxGeometry x="620" y="572.5" width="120" height="60" as="geometry" />
        </mxCell>
        <mxCell id="QEWAOKEdLzfHGVJ29-9n-30" value="end" style="ellipse;whiteSpace=wrap;html=1;" vertex="1" parent="1">
          <mxGeometry x="780" y="562.5" width="120" height="80" as="geometry" />
        </mxCell>
      </root>
    </mxGraphModel>
  </diagram>
  <diagram id="gBGvm8ZYM6AvP6HKjT5H" name="bài thực hành3">
    <mxGraphModel dx="913" dy="537" grid="1" gridSize="10" guides="1" tooltips="1" connect="1" arrows="1" fold="1" page="1" pageScale="1" pageWidth="827" pageHeight="1169" math="0" shadow="0">
      <root>
        <mxCell id="0" />
        <mxCell id="1" parent="0" />
        <mxCell id="vex01yqRBy6tyZ1a165N-3" style="edgeStyle=orthogonalEdgeStyle;rounded=0;orthogonalLoop=1;jettySize=auto;html=1;entryX=0.5;entryY=0;entryDx=0;entryDy=0;" edge="1" parent="1" source="vex01yqRBy6tyZ1a165N-1" target="vex01yqRBy6tyZ1a165N-2">
          <mxGeometry relative="1" as="geometry" />
        </mxCell>
        <mxCell id="vex01yqRBy6tyZ1a165N-1" value="start" style="ellipse;whiteSpace=wrap;html=1;" vertex="1" parent="1">
          <mxGeometry x="294" y="80" width="120" height="80" as="geometry" />
        </mxCell>
        <mxCell id="vex01yqRBy6tyZ1a165N-15" style="edgeStyle=orthogonalEdgeStyle;rounded=0;orthogonalLoop=1;jettySize=auto;html=1;entryX=0.5;entryY=0;entryDx=0;entryDy=0;" edge="1" parent="1" source="vex01yqRBy6tyZ1a165N-2" target="vex01yqRBy6tyZ1a165N-4">
          <mxGeometry relative="1" as="geometry" />
        </mxCell>
        <mxCell id="vex01yqRBy6tyZ1a165N-2" value="nhập số phút đã sử dụng =a,&lt;br&gt;tiền phải trả =b" style="shape=parallelogram;perimeter=parallelogramPerimeter;whiteSpace=wrap;html=1;fixedSize=1;" vertex="1" parent="1">
          <mxGeometry x="257" y="200" width="194" height="60" as="geometry" />
        </mxCell>
        <mxCell id="vex01yqRBy6tyZ1a165N-16" style="edgeStyle=orthogonalEdgeStyle;rounded=0;orthogonalLoop=1;jettySize=auto;html=1;entryX=0.5;entryY=0;entryDx=0;entryDy=0;" edge="1" parent="1" source="vex01yqRBy6tyZ1a165N-4" target="vex01yqRBy6tyZ1a165N-5">
          <mxGeometry relative="1" as="geometry">
            <Array as="points">
              <mxPoint x="354" y="430" />
              <mxPoint x="354" y="430" />
            </Array>
          </mxGeometry>
        </mxCell>
        <mxCell id="vex01yqRBy6tyZ1a165N-34" value="false" style="edgeLabel;html=1;align=center;verticalAlign=middle;resizable=0;points=[];" vertex="1" connectable="0" parent="vex01yqRBy6tyZ1a165N-16">
          <mxGeometry x="-0.0676" y="-1" relative="1" as="geometry">
            <mxPoint as="offset" />
          </mxGeometry>
        </mxCell>
        <mxCell id="vex01yqRBy6tyZ1a165N-22" style="edgeStyle=orthogonalEdgeStyle;rounded=0;orthogonalLoop=1;jettySize=auto;html=1;entryX=0;entryY=0.5;entryDx=0;entryDy=0;" edge="1" parent="1" source="vex01yqRBy6tyZ1a165N-4" target="vex01yqRBy6tyZ1a165N-8">
          <mxGeometry relative="1" as="geometry" />
        </mxCell>
        <mxCell id="vex01yqRBy6tyZ1a165N-33" value="true" style="edgeLabel;html=1;align=center;verticalAlign=middle;resizable=0;points=[];" vertex="1" connectable="0" parent="vex01yqRBy6tyZ1a165N-22">
          <mxGeometry x="-0.1818" relative="1" as="geometry">
            <mxPoint as="offset" />
          </mxGeometry>
        </mxCell>
        <mxCell id="vex01yqRBy6tyZ1a165N-4" value="a&amp;lt;=50" style="rhombus;whiteSpace=wrap;html=1;" vertex="1" parent="1">
          <mxGeometry x="314" y="320" width="80" height="80" as="geometry" />
        </mxCell>
        <mxCell id="vex01yqRBy6tyZ1a165N-17" style="edgeStyle=orthogonalEdgeStyle;rounded=0;orthogonalLoop=1;jettySize=auto;html=1;entryX=0.5;entryY=0;entryDx=0;entryDy=0;" edge="1" parent="1" source="vex01yqRBy6tyZ1a165N-5" target="vex01yqRBy6tyZ1a165N-6">
          <mxGeometry relative="1" as="geometry" />
        </mxCell>
        <mxCell id="vex01yqRBy6tyZ1a165N-35" value="false" style="edgeLabel;html=1;align=center;verticalAlign=middle;resizable=0;points=[];" vertex="1" connectable="0" parent="vex01yqRBy6tyZ1a165N-17">
          <mxGeometry x="-0.0062" relative="1" as="geometry">
            <mxPoint as="offset" />
          </mxGeometry>
        </mxCell>
        <mxCell id="vex01yqRBy6tyZ1a165N-21" style="edgeStyle=orthogonalEdgeStyle;rounded=0;orthogonalLoop=1;jettySize=auto;html=1;entryX=0;entryY=0.5;entryDx=0;entryDy=0;" edge="1" parent="1" source="vex01yqRBy6tyZ1a165N-5" target="vex01yqRBy6tyZ1a165N-9">
          <mxGeometry relative="1" as="geometry" />
        </mxCell>
        <mxCell id="vex01yqRBy6tyZ1a165N-36" value="true" style="edgeLabel;html=1;align=center;verticalAlign=middle;resizable=0;points=[];" vertex="1" connectable="0" parent="vex01yqRBy6tyZ1a165N-21">
          <mxGeometry x="-0.0764" y="-1" relative="1" as="geometry">
            <mxPoint as="offset" />
          </mxGeometry>
        </mxCell>
        <mxCell id="vex01yqRBy6tyZ1a165N-5" value="50&amp;lt;a&amp;lt;=200" style="rhombus;whiteSpace=wrap;html=1;" vertex="1" parent="1">
          <mxGeometry x="314" y="470" width="80" height="80" as="geometry" />
        </mxCell>
        <mxCell id="vex01yqRBy6tyZ1a165N-18" style="edgeStyle=orthogonalEdgeStyle;rounded=0;orthogonalLoop=1;jettySize=auto;html=1;entryX=0.5;entryY=0;entryDx=0;entryDy=0;" edge="1" parent="1" source="vex01yqRBy6tyZ1a165N-6" target="vex01yqRBy6tyZ1a165N-7">
          <mxGeometry relative="1" as="geometry" />
        </mxCell>
        <mxCell id="vex01yqRBy6tyZ1a165N-38" value="false" style="edgeLabel;html=1;align=center;verticalAlign=middle;resizable=0;points=[];" vertex="1" connectable="0" parent="vex01yqRBy6tyZ1a165N-18">
          <mxGeometry x="-0.1159" relative="1" as="geometry">
            <mxPoint as="offset" />
          </mxGeometry>
        </mxCell>
        <mxCell id="vex01yqRBy6tyZ1a165N-20" style="edgeStyle=orthogonalEdgeStyle;rounded=0;orthogonalLoop=1;jettySize=auto;html=1;entryX=0;entryY=0.5;entryDx=0;entryDy=0;" edge="1" parent="1" source="vex01yqRBy6tyZ1a165N-6" target="vex01yqRBy6tyZ1a165N-10">
          <mxGeometry relative="1" as="geometry" />
        </mxCell>
        <mxCell id="vex01yqRBy6tyZ1a165N-37" value="true" style="edgeLabel;html=1;align=center;verticalAlign=middle;resizable=0;points=[];" vertex="1" connectable="0" parent="vex01yqRBy6tyZ1a165N-20">
          <mxGeometry x="-0.0237" relative="1" as="geometry">
            <mxPoint as="offset" />
          </mxGeometry>
        </mxCell>
        <mxCell id="vex01yqRBy6tyZ1a165N-6" value="200&amp;lt;a&amp;lt;=400" style="rhombus;whiteSpace=wrap;html=1;" vertex="1" parent="1">
          <mxGeometry x="314" y="620" width="80" height="80" as="geometry" />
        </mxCell>
        <mxCell id="vex01yqRBy6tyZ1a165N-19" style="edgeStyle=orthogonalEdgeStyle;rounded=0;orthogonalLoop=1;jettySize=auto;html=1;entryX=0;entryY=0.5;entryDx=0;entryDy=0;" edge="1" parent="1" source="vex01yqRBy6tyZ1a165N-7" target="vex01yqRBy6tyZ1a165N-12">
          <mxGeometry relative="1" as="geometry" />
        </mxCell>
        <mxCell id="vex01yqRBy6tyZ1a165N-39" value="true" style="edgeLabel;html=1;align=center;verticalAlign=middle;resizable=0;points=[];" vertex="1" connectable="0" parent="vex01yqRBy6tyZ1a165N-19">
          <mxGeometry x="0.029" y="2" relative="1" as="geometry">
            <mxPoint as="offset" />
          </mxGeometry>
        </mxCell>
        <mxCell id="vex01yqRBy6tyZ1a165N-7" value="a&amp;gt;400" style="rhombus;whiteSpace=wrap;html=1;" vertex="1" parent="1">
          <mxGeometry x="314" y="760" width="80" height="80" as="geometry" />
        </mxCell>
        <mxCell id="vex01yqRBy6tyZ1a165N-25" style="edgeStyle=orthogonalEdgeStyle;rounded=0;orthogonalLoop=1;jettySize=auto;html=1;" edge="1" parent="1">
          <mxGeometry relative="1" as="geometry">
            <mxPoint x="780" y="555" as="targetPoint" />
            <mxPoint x="580" y="375" as="sourcePoint" />
          </mxGeometry>
        </mxCell>
        <mxCell id="vex01yqRBy6tyZ1a165N-8" value="b=a*600" style="rounded=0;whiteSpace=wrap;html=1;" vertex="1" parent="1">
          <mxGeometry x="460" y="330" width="120" height="60" as="geometry" />
        </mxCell>
        <mxCell id="vex01yqRBy6tyZ1a165N-30" style="edgeStyle=orthogonalEdgeStyle;rounded=0;orthogonalLoop=1;jettySize=auto;html=1;" edge="1" parent="1" source="vex01yqRBy6tyZ1a165N-9" target="vex01yqRBy6tyZ1a165N-13">
          <mxGeometry relative="1" as="geometry">
            <mxPoint x="750" y="509.9999999999999" as="targetPoint" />
          </mxGeometry>
        </mxCell>
        <mxCell id="vex01yqRBy6tyZ1a165N-9" value="b=(50*600)+(a-50)*400" style="rounded=0;whiteSpace=wrap;html=1;" vertex="1" parent="1">
          <mxGeometry x="460" y="480" width="140" height="60" as="geometry" />
        </mxCell>
        <mxCell id="vex01yqRBy6tyZ1a165N-31" style="edgeStyle=orthogonalEdgeStyle;rounded=0;orthogonalLoop=1;jettySize=auto;html=1;entryX=0.5;entryY=1;entryDx=0;entryDy=0;" edge="1" parent="1" source="vex01yqRBy6tyZ1a165N-10" target="vex01yqRBy6tyZ1a165N-13">
          <mxGeometry relative="1" as="geometry">
            <mxPoint x="770" y="660" as="targetPoint" />
          </mxGeometry>
        </mxCell>
        <mxCell id="vex01yqRBy6tyZ1a165N-10" value="b=(50*600)+(150*400)+(a-200)*200" style="rounded=0;whiteSpace=wrap;html=1;" vertex="1" parent="1">
          <mxGeometry x="460" y="630" width="140" height="60" as="geometry" />
        </mxCell>
        <mxCell id="vex01yqRBy6tyZ1a165N-27" style="edgeStyle=orthogonalEdgeStyle;rounded=0;orthogonalLoop=1;jettySize=auto;html=1;entryX=0.575;entryY=0.971;entryDx=0;entryDy=0;entryPerimeter=0;" edge="1" parent="1" source="vex01yqRBy6tyZ1a165N-12" target="vex01yqRBy6tyZ1a165N-13">
          <mxGeometry relative="1" as="geometry">
            <mxPoint x="780" y="800" as="targetPoint" />
          </mxGeometry>
        </mxCell>
        <mxCell id="vex01yqRBy6tyZ1a165N-12" value="b=(50*600)+(150*400)+(200*200)+(a-400)*100" style="rounded=0;whiteSpace=wrap;html=1;" vertex="1" parent="1">
          <mxGeometry x="460" y="770" width="140" height="60" as="geometry" />
        </mxCell>
        <mxCell id="vex01yqRBy6tyZ1a165N-32" style="edgeStyle=orthogonalEdgeStyle;rounded=0;orthogonalLoop=1;jettySize=auto;html=1;entryX=0;entryY=0.5;entryDx=0;entryDy=0;" edge="1" parent="1" source="vex01yqRBy6tyZ1a165N-13" target="vex01yqRBy6tyZ1a165N-14">
          <mxGeometry relative="1" as="geometry" />
        </mxCell>
        <mxCell id="vex01yqRBy6tyZ1a165N-13" value="số tiền phải trả là: y VNĐ" style="shape=parallelogram;perimeter=parallelogramPerimeter;whiteSpace=wrap;html=1;fixedSize=1;" vertex="1" parent="1">
          <mxGeometry x="680" y="555" width="180" height="60" as="geometry" />
        </mxCell>
        <mxCell id="vex01yqRBy6tyZ1a165N-14" value="end" style="ellipse;whiteSpace=wrap;html=1;" vertex="1" parent="1">
          <mxGeometry x="920" y="545" width="120" height="80" as="geometry" />
        </mxCell>
      </root>
    </mxGraphModel>
  </diagram>
  <diagram id="IO5x5TFbpY23y940-Lyq" name="bài thực hành4">
    <mxGraphModel dx="1105" dy="649" grid="1" gridSize="10" guides="1" tooltips="1" connect="1" arrows="1" fold="1" page="1" pageScale="1" pageWidth="827" pageHeight="1169" math="0" shadow="0">
      <root>
        <mxCell id="0" />
        <mxCell id="1" parent="0" />
        <mxCell id="VHzOVDQ-fqrdDYr4aTdg-21" style="edgeStyle=orthogonalEdgeStyle;rounded=0;orthogonalLoop=1;jettySize=auto;html=1;entryX=0.5;entryY=0;entryDx=0;entryDy=0;" edge="1" parent="1" source="VHzOVDQ-fqrdDYr4aTdg-2" target="VHzOVDQ-fqrdDYr4aTdg-3">
          <mxGeometry relative="1" as="geometry" />
        </mxCell>
        <mxCell id="VHzOVDQ-fqrdDYr4aTdg-2" value="start" style="ellipse;whiteSpace=wrap;html=1;" vertex="1" parent="1">
          <mxGeometry x="245" y="110" width="120" height="80" as="geometry" />
        </mxCell>
        <mxCell id="VHzOVDQ-fqrdDYr4aTdg-22" style="edgeStyle=orthogonalEdgeStyle;rounded=0;orthogonalLoop=1;jettySize=auto;html=1;" edge="1" parent="1" source="VHzOVDQ-fqrdDYr4aTdg-3" target="VHzOVDQ-fqrdDYr4aTdg-5">
          <mxGeometry relative="1" as="geometry" />
        </mxCell>
        <mxCell id="VHzOVDQ-fqrdDYr4aTdg-3" value="nhập thu nhập tính thuế =x,&lt;br&gt;lương thực tế =y" style="shape=parallelogram;perimeter=parallelogramPerimeter;whiteSpace=wrap;html=1;fixedSize=1;" vertex="1" parent="1">
          <mxGeometry x="210" y="230" width="190" height="60" as="geometry" />
        </mxCell>
        <mxCell id="VHzOVDQ-fqrdDYr4aTdg-23" style="edgeStyle=orthogonalEdgeStyle;rounded=0;orthogonalLoop=1;jettySize=auto;html=1;entryX=0.5;entryY=0;entryDx=0;entryDy=0;" edge="1" parent="1" source="VHzOVDQ-fqrdDYr4aTdg-5" target="VHzOVDQ-fqrdDYr4aTdg-6">
          <mxGeometry relative="1" as="geometry" />
        </mxCell>
        <mxCell id="VHzOVDQ-fqrdDYr4aTdg-36" style="edgeStyle=orthogonalEdgeStyle;rounded=0;orthogonalLoop=1;jettySize=auto;html=1;entryX=0;entryY=0.5;entryDx=0;entryDy=0;" edge="1" parent="1" source="VHzOVDQ-fqrdDYr4aTdg-5" target="VHzOVDQ-fqrdDYr4aTdg-12">
          <mxGeometry relative="1" as="geometry" />
        </mxCell>
        <mxCell id="VHzOVDQ-fqrdDYr4aTdg-5" value="0&amp;lt;x&amp;lt;=5" style="rhombus;whiteSpace=wrap;html=1;" vertex="1" parent="1">
          <mxGeometry x="265" y="310" width="80" height="80" as="geometry" />
        </mxCell>
        <mxCell id="VHzOVDQ-fqrdDYr4aTdg-24" style="edgeStyle=orthogonalEdgeStyle;rounded=0;orthogonalLoop=1;jettySize=auto;html=1;entryX=0.5;entryY=0;entryDx=0;entryDy=0;" edge="1" parent="1" source="VHzOVDQ-fqrdDYr4aTdg-6" target="VHzOVDQ-fqrdDYr4aTdg-7">
          <mxGeometry relative="1" as="geometry" />
        </mxCell>
        <mxCell id="VHzOVDQ-fqrdDYr4aTdg-35" style="edgeStyle=orthogonalEdgeStyle;rounded=0;orthogonalLoop=1;jettySize=auto;html=1;entryX=0;entryY=0.5;entryDx=0;entryDy=0;" edge="1" parent="1" source="VHzOVDQ-fqrdDYr4aTdg-6" target="VHzOVDQ-fqrdDYr4aTdg-13">
          <mxGeometry relative="1" as="geometry" />
        </mxCell>
        <mxCell id="VHzOVDQ-fqrdDYr4aTdg-6" value="5&amp;lt;x&amp;lt;=10" style="rhombus;whiteSpace=wrap;html=1;" vertex="1" parent="1">
          <mxGeometry x="265" y="450" width="80" height="80" as="geometry" />
        </mxCell>
        <mxCell id="VHzOVDQ-fqrdDYr4aTdg-25" style="edgeStyle=orthogonalEdgeStyle;rounded=0;orthogonalLoop=1;jettySize=auto;html=1;entryX=0.5;entryY=0;entryDx=0;entryDy=0;" edge="1" parent="1" source="VHzOVDQ-fqrdDYr4aTdg-7" target="VHzOVDQ-fqrdDYr4aTdg-8">
          <mxGeometry relative="1" as="geometry" />
        </mxCell>
        <mxCell id="VHzOVDQ-fqrdDYr4aTdg-34" style="edgeStyle=orthogonalEdgeStyle;rounded=0;orthogonalLoop=1;jettySize=auto;html=1;entryX=0;entryY=0.5;entryDx=0;entryDy=0;" edge="1" parent="1" source="VHzOVDQ-fqrdDYr4aTdg-7" target="VHzOVDQ-fqrdDYr4aTdg-14">
          <mxGeometry relative="1" as="geometry" />
        </mxCell>
        <mxCell id="VHzOVDQ-fqrdDYr4aTdg-7" value="10&amp;lt;x&amp;lt;=18" style="rhombus;whiteSpace=wrap;html=1;" vertex="1" parent="1">
          <mxGeometry x="265" y="590" width="80" height="80" as="geometry" />
        </mxCell>
        <mxCell id="VHzOVDQ-fqrdDYr4aTdg-26" style="edgeStyle=orthogonalEdgeStyle;rounded=0;orthogonalLoop=1;jettySize=auto;html=1;" edge="1" parent="1" source="VHzOVDQ-fqrdDYr4aTdg-8" target="VHzOVDQ-fqrdDYr4aTdg-9">
          <mxGeometry relative="1" as="geometry" />
        </mxCell>
        <mxCell id="VHzOVDQ-fqrdDYr4aTdg-33" style="edgeStyle=orthogonalEdgeStyle;rounded=0;orthogonalLoop=1;jettySize=auto;html=1;entryX=0;entryY=0.5;entryDx=0;entryDy=0;" edge="1" parent="1" source="VHzOVDQ-fqrdDYr4aTdg-8" target="VHzOVDQ-fqrdDYr4aTdg-15">
          <mxGeometry relative="1" as="geometry" />
        </mxCell>
        <mxCell id="VHzOVDQ-fqrdDYr4aTdg-8" value="18&amp;lt;x&amp;lt;=32" style="rhombus;whiteSpace=wrap;html=1;" vertex="1" parent="1">
          <mxGeometry x="265" y="720" width="80" height="80" as="geometry" />
        </mxCell>
        <mxCell id="VHzOVDQ-fqrdDYr4aTdg-27" style="edgeStyle=orthogonalEdgeStyle;rounded=0;orthogonalLoop=1;jettySize=auto;html=1;entryX=0.5;entryY=0;entryDx=0;entryDy=0;" edge="1" parent="1" source="VHzOVDQ-fqrdDYr4aTdg-9" target="VHzOVDQ-fqrdDYr4aTdg-10">
          <mxGeometry relative="1" as="geometry" />
        </mxCell>
        <mxCell id="VHzOVDQ-fqrdDYr4aTdg-32" style="edgeStyle=orthogonalEdgeStyle;rounded=0;orthogonalLoop=1;jettySize=auto;html=1;entryX=0;entryY=0.5;entryDx=0;entryDy=0;" edge="1" parent="1" source="VHzOVDQ-fqrdDYr4aTdg-9" target="VHzOVDQ-fqrdDYr4aTdg-16">
          <mxGeometry relative="1" as="geometry" />
        </mxCell>
        <mxCell id="VHzOVDQ-fqrdDYr4aTdg-9" value="32&amp;lt;x&amp;lt;=52" style="rhombus;whiteSpace=wrap;html=1;" vertex="1" parent="1">
          <mxGeometry x="265" y="860" width="80" height="80" as="geometry" />
        </mxCell>
        <mxCell id="VHzOVDQ-fqrdDYr4aTdg-28" style="edgeStyle=orthogonalEdgeStyle;rounded=0;orthogonalLoop=1;jettySize=auto;html=1;entryX=0.5;entryY=0;entryDx=0;entryDy=0;" edge="1" parent="1" source="VHzOVDQ-fqrdDYr4aTdg-10" target="VHzOVDQ-fqrdDYr4aTdg-11">
          <mxGeometry relative="1" as="geometry" />
        </mxCell>
        <mxCell id="VHzOVDQ-fqrdDYr4aTdg-30" style="edgeStyle=orthogonalEdgeStyle;rounded=0;orthogonalLoop=1;jettySize=auto;html=1;entryX=0;entryY=0.5;entryDx=0;entryDy=0;" edge="1" parent="1" source="VHzOVDQ-fqrdDYr4aTdg-10" target="VHzOVDQ-fqrdDYr4aTdg-17">
          <mxGeometry relative="1" as="geometry">
            <mxPoint x="410" y="1030" as="targetPoint" />
          </mxGeometry>
        </mxCell>
        <mxCell id="VHzOVDQ-fqrdDYr4aTdg-10" value="52&amp;lt;x&amp;lt;=80" style="rhombus;whiteSpace=wrap;html=1;" vertex="1" parent="1">
          <mxGeometry x="265" y="990" width="80" height="80" as="geometry" />
        </mxCell>
        <mxCell id="VHzOVDQ-fqrdDYr4aTdg-29" style="edgeStyle=orthogonalEdgeStyle;rounded=0;orthogonalLoop=1;jettySize=auto;html=1;entryX=0;entryY=0.5;entryDx=0;entryDy=0;" edge="1" parent="1" source="VHzOVDQ-fqrdDYr4aTdg-11" target="VHzOVDQ-fqrdDYr4aTdg-18">
          <mxGeometry relative="1" as="geometry" />
        </mxCell>
        <mxCell id="VHzOVDQ-fqrdDYr4aTdg-11" value="x&amp;gt;80" style="rhombus;whiteSpace=wrap;html=1;" vertex="1" parent="1">
          <mxGeometry x="265" y="1120" width="80" height="80" as="geometry" />
        </mxCell>
        <mxCell id="VHzOVDQ-fqrdDYr4aTdg-38" style="edgeStyle=orthogonalEdgeStyle;rounded=0;orthogonalLoop=1;jettySize=auto;html=1;entryX=0.662;entryY=-0.07;entryDx=0;entryDy=0;entryPerimeter=0;" edge="1" parent="1" source="VHzOVDQ-fqrdDYr4aTdg-12" target="VHzOVDQ-fqrdDYr4aTdg-19">
          <mxGeometry relative="1" as="geometry">
            <mxPoint x="770" y="350" as="targetPoint" />
          </mxGeometry>
        </mxCell>
        <mxCell id="VHzOVDQ-fqrdDYr4aTdg-12" value="y=x*0.95" style="rounded=0;whiteSpace=wrap;html=1;" vertex="1" parent="1">
          <mxGeometry x="414" y="320" width="120" height="60" as="geometry" />
        </mxCell>
        <mxCell id="VHzOVDQ-fqrdDYr4aTdg-39" style="edgeStyle=orthogonalEdgeStyle;rounded=0;orthogonalLoop=1;jettySize=auto;html=1;" edge="1" parent="1" source="VHzOVDQ-fqrdDYr4aTdg-13">
          <mxGeometry relative="1" as="geometry">
            <mxPoint x="770" y="490" as="targetPoint" />
          </mxGeometry>
        </mxCell>
        <mxCell id="VHzOVDQ-fqrdDYr4aTdg-13" value="y=x*0.9" style="rounded=0;whiteSpace=wrap;html=1;" vertex="1" parent="1">
          <mxGeometry x="414" y="460" width="120" height="60" as="geometry" />
        </mxCell>
        <mxCell id="VHzOVDQ-fqrdDYr4aTdg-40" style="edgeStyle=orthogonalEdgeStyle;rounded=0;orthogonalLoop=1;jettySize=auto;html=1;" edge="1" parent="1" source="VHzOVDQ-fqrdDYr4aTdg-14">
          <mxGeometry relative="1" as="geometry">
            <mxPoint x="770" y="630" as="targetPoint" />
          </mxGeometry>
        </mxCell>
        <mxCell id="VHzOVDQ-fqrdDYr4aTdg-14" value="y=x*0.85" style="rounded=0;whiteSpace=wrap;html=1;" vertex="1" parent="1">
          <mxGeometry x="414" y="600" width="120" height="60" as="geometry" />
        </mxCell>
        <mxCell id="VHzOVDQ-fqrdDYr4aTdg-37" style="edgeStyle=orthogonalEdgeStyle;rounded=0;orthogonalLoop=1;jettySize=auto;html=1;" edge="1" parent="1" source="VHzOVDQ-fqrdDYr4aTdg-15" target="VHzOVDQ-fqrdDYr4aTdg-19">
          <mxGeometry relative="1" as="geometry" />
        </mxCell>
        <mxCell id="VHzOVDQ-fqrdDYr4aTdg-15" value="y=x*0.8" style="rounded=0;whiteSpace=wrap;html=1;" vertex="1" parent="1">
          <mxGeometry x="414" y="730" width="120" height="60" as="geometry" />
        </mxCell>
        <mxCell id="VHzOVDQ-fqrdDYr4aTdg-42" style="edgeStyle=orthogonalEdgeStyle;rounded=0;orthogonalLoop=1;jettySize=auto;html=1;" edge="1" parent="1" source="VHzOVDQ-fqrdDYr4aTdg-16">
          <mxGeometry relative="1" as="geometry">
            <mxPoint x="770" y="900" as="targetPoint" />
          </mxGeometry>
        </mxCell>
        <mxCell id="VHzOVDQ-fqrdDYr4aTdg-16" value="y=x*0.75" style="rounded=0;whiteSpace=wrap;html=1;" vertex="1" parent="1">
          <mxGeometry x="414" y="870" width="120" height="60" as="geometry" />
        </mxCell>
        <mxCell id="VHzOVDQ-fqrdDYr4aTdg-43" style="edgeStyle=orthogonalEdgeStyle;rounded=0;orthogonalLoop=1;jettySize=auto;html=1;" edge="1" parent="1" source="VHzOVDQ-fqrdDYr4aTdg-17">
          <mxGeometry relative="1" as="geometry">
            <mxPoint x="770" y="1030" as="targetPoint" />
          </mxGeometry>
        </mxCell>
        <mxCell id="VHzOVDQ-fqrdDYr4aTdg-17" value="y=x*0.7" style="rounded=0;whiteSpace=wrap;html=1;" vertex="1" parent="1">
          <mxGeometry x="414" y="1000" width="120" height="60" as="geometry" />
        </mxCell>
        <mxCell id="VHzOVDQ-fqrdDYr4aTdg-41" style="edgeStyle=orthogonalEdgeStyle;rounded=0;orthogonalLoop=1;jettySize=auto;html=1;entryX=0.668;entryY=0.97;entryDx=0;entryDy=0;entryPerimeter=0;" edge="1" parent="1" source="VHzOVDQ-fqrdDYr4aTdg-18" target="VHzOVDQ-fqrdDYr4aTdg-19">
          <mxGeometry relative="1" as="geometry">
            <mxPoint x="770" y="1160" as="targetPoint" />
          </mxGeometry>
        </mxCell>
        <mxCell id="VHzOVDQ-fqrdDYr4aTdg-18" value="y=x*0.65" style="rounded=0;whiteSpace=wrap;html=1;" vertex="1" parent="1">
          <mxGeometry x="414" y="1130" width="120" height="60" as="geometry" />
        </mxCell>
        <mxCell id="VHzOVDQ-fqrdDYr4aTdg-44" style="edgeStyle=orthogonalEdgeStyle;rounded=0;orthogonalLoop=1;jettySize=auto;html=1;entryX=0;entryY=0.5;entryDx=0;entryDy=0;" edge="1" parent="1" source="VHzOVDQ-fqrdDYr4aTdg-19" target="VHzOVDQ-fqrdDYr4aTdg-20">
          <mxGeometry relative="1" as="geometry" />
        </mxCell>
        <mxCell id="VHzOVDQ-fqrdDYr4aTdg-19" value="lương thực tế nhận được là y triệu" style="shape=parallelogram;perimeter=parallelogramPerimeter;whiteSpace=wrap;html=1;fixedSize=1;" vertex="1" parent="1">
          <mxGeometry x="610" y="730" width="240" height="60" as="geometry" />
        </mxCell>
        <mxCell id="VHzOVDQ-fqrdDYr4aTdg-20" value="end" style="ellipse;whiteSpace=wrap;html=1;" vertex="1" parent="1">
          <mxGeometry x="910" y="720" width="120" height="80" as="geometry" />
        </mxCell>
      </root>
    </mxGraphModel>
  </diagram>
  <diagram id="UMVqoWmq4QuLY0efCOKW" name="bài thực hành5">
    <mxGraphModel dx="1909" dy="1122" grid="1" gridSize="10" guides="1" tooltips="1" connect="1" arrows="1" fold="1" page="1" pageScale="1" pageWidth="827" pageHeight="1169" math="0" shadow="0">
      <root>
        <mxCell id="0" />
        <mxCell id="1" parent="0" />
        <mxCell id="v-GOKkK2tIxpZZ67Loet-29" style="edgeStyle=orthogonalEdgeStyle;rounded=0;orthogonalLoop=1;jettySize=auto;html=1;entryX=0.5;entryY=0;entryDx=0;entryDy=0;" edge="1" parent="1" source="v-GOKkK2tIxpZZ67Loet-1" target="v-GOKkK2tIxpZZ67Loet-2">
          <mxGeometry relative="1" as="geometry" />
        </mxCell>
        <mxCell id="v-GOKkK2tIxpZZ67Loet-1" value="start" style="ellipse;whiteSpace=wrap;html=1;" vertex="1" parent="1">
          <mxGeometry x="360" y="50" width="120" height="80" as="geometry" />
        </mxCell>
        <mxCell id="v-GOKkK2tIxpZZ67Loet-30" style="edgeStyle=orthogonalEdgeStyle;rounded=0;orthogonalLoop=1;jettySize=auto;html=1;entryX=0.5;entryY=0;entryDx=0;entryDy=0;" edge="1" parent="1" source="v-GOKkK2tIxpZZ67Loet-2" target="v-GOKkK2tIxpZZ67Loet-3">
          <mxGeometry relative="1" as="geometry" />
        </mxCell>
        <mxCell id="v-GOKkK2tIxpZZ67Loet-2" value="nhập ngày =a,&lt;br&gt;tháng =b" style="shape=parallelogram;perimeter=parallelogramPerimeter;whiteSpace=wrap;html=1;fixedSize=1;" vertex="1" parent="1">
          <mxGeometry x="360" y="180" width="120" height="60" as="geometry" />
        </mxCell>
        <mxCell id="v-GOKkK2tIxpZZ67Loet-31" style="edgeStyle=orthogonalEdgeStyle;rounded=0;orthogonalLoop=1;jettySize=auto;html=1;entryX=0;entryY=0.5;entryDx=0;entryDy=0;" edge="1" parent="1" source="v-GOKkK2tIxpZZ67Loet-3" target="v-GOKkK2tIxpZZ67Loet-15">
          <mxGeometry relative="1" as="geometry" />
        </mxCell>
        <mxCell id="v-GOKkK2tIxpZZ67Loet-70" value="true" style="edgeLabel;html=1;align=center;verticalAlign=middle;resizable=0;points=[];" vertex="1" connectable="0" parent="v-GOKkK2tIxpZZ67Loet-31">
          <mxGeometry x="-0.0709" y="-1" relative="1" as="geometry">
            <mxPoint as="offset" />
          </mxGeometry>
        </mxCell>
        <mxCell id="v-GOKkK2tIxpZZ67Loet-32" style="edgeStyle=orthogonalEdgeStyle;rounded=0;orthogonalLoop=1;jettySize=auto;html=1;entryX=0.5;entryY=0;entryDx=0;entryDy=0;" edge="1" parent="1" source="v-GOKkK2tIxpZZ67Loet-3" target="v-GOKkK2tIxpZZ67Loet-4">
          <mxGeometry relative="1" as="geometry" />
        </mxCell>
        <mxCell id="v-GOKkK2tIxpZZ67Loet-71" value="false" style="edgeLabel;html=1;align=center;verticalAlign=middle;resizable=0;points=[];" vertex="1" connectable="0" parent="v-GOKkK2tIxpZZ67Loet-32">
          <mxGeometry x="-0.1381" y="1" relative="1" as="geometry">
            <mxPoint as="offset" />
          </mxGeometry>
        </mxCell>
        <mxCell id="v-GOKkK2tIxpZZ67Loet-3" value="x&amp;gt;=21 and y=3 or x&amp;lt;=20 and y=4" style="rhombus;whiteSpace=wrap;html=1;" vertex="1" parent="1">
          <mxGeometry x="355" y="270" width="130" height="100" as="geometry" />
        </mxCell>
        <mxCell id="v-GOKkK2tIxpZZ67Loet-33" style="edgeStyle=orthogonalEdgeStyle;rounded=0;orthogonalLoop=1;jettySize=auto;html=1;" edge="1" parent="1" source="v-GOKkK2tIxpZZ67Loet-4" target="v-GOKkK2tIxpZZ67Loet-16">
          <mxGeometry relative="1" as="geometry" />
        </mxCell>
        <mxCell id="v-GOKkK2tIxpZZ67Loet-72" value="true" style="edgeLabel;html=1;align=center;verticalAlign=middle;resizable=0;points=[];" vertex="1" connectable="0" parent="v-GOKkK2tIxpZZ67Loet-33">
          <mxGeometry x="0.0279" y="-1" relative="1" as="geometry">
            <mxPoint as="offset" />
          </mxGeometry>
        </mxCell>
        <mxCell id="v-GOKkK2tIxpZZ67Loet-34" style="edgeStyle=orthogonalEdgeStyle;rounded=0;orthogonalLoop=1;jettySize=auto;html=1;entryX=0.5;entryY=0;entryDx=0;entryDy=0;" edge="1" parent="1" source="v-GOKkK2tIxpZZ67Loet-4" target="v-GOKkK2tIxpZZ67Loet-5">
          <mxGeometry relative="1" as="geometry" />
        </mxCell>
        <mxCell id="v-GOKkK2tIxpZZ67Loet-83" value="false" style="edgeLabel;html=1;align=center;verticalAlign=middle;resizable=0;points=[];" vertex="1" connectable="0" parent="v-GOKkK2tIxpZZ67Loet-34">
          <mxGeometry x="-0.025" y="1" relative="1" as="geometry">
            <mxPoint as="offset" />
          </mxGeometry>
        </mxCell>
        <mxCell id="v-GOKkK2tIxpZZ67Loet-4" value="x&amp;gt;=21 and y=4 or x&amp;lt;=20 and y=5" style="rhombus;whiteSpace=wrap;html=1;" vertex="1" parent="1">
          <mxGeometry x="355" y="410" width="130" height="100" as="geometry" />
        </mxCell>
        <mxCell id="v-GOKkK2tIxpZZ67Loet-35" style="edgeStyle=orthogonalEdgeStyle;rounded=0;orthogonalLoop=1;jettySize=auto;html=1;entryX=0;entryY=0.5;entryDx=0;entryDy=0;" edge="1" parent="1" source="v-GOKkK2tIxpZZ67Loet-5" target="v-GOKkK2tIxpZZ67Loet-17">
          <mxGeometry relative="1" as="geometry" />
        </mxCell>
        <mxCell id="v-GOKkK2tIxpZZ67Loet-73" value="true" style="edgeLabel;html=1;align=center;verticalAlign=middle;resizable=0;points=[];" vertex="1" connectable="0" parent="v-GOKkK2tIxpZZ67Loet-35">
          <mxGeometry x="0.0279" relative="1" as="geometry">
            <mxPoint as="offset" />
          </mxGeometry>
        </mxCell>
        <mxCell id="v-GOKkK2tIxpZZ67Loet-37" style="edgeStyle=orthogonalEdgeStyle;rounded=0;orthogonalLoop=1;jettySize=auto;html=1;entryX=0.5;entryY=0;entryDx=0;entryDy=0;" edge="1" parent="1" source="v-GOKkK2tIxpZZ67Loet-5" target="v-GOKkK2tIxpZZ67Loet-6">
          <mxGeometry relative="1" as="geometry" />
        </mxCell>
        <mxCell id="v-GOKkK2tIxpZZ67Loet-84" value="false" style="edgeLabel;html=1;align=center;verticalAlign=middle;resizable=0;points=[];" vertex="1" connectable="0" parent="v-GOKkK2tIxpZZ67Loet-37">
          <mxGeometry x="-0.1917" relative="1" as="geometry">
            <mxPoint as="offset" />
          </mxGeometry>
        </mxCell>
        <mxCell id="v-GOKkK2tIxpZZ67Loet-5" value="x&amp;gt;=21 and y=5 or x&amp;lt;=21 and y=6" style="rhombus;whiteSpace=wrap;html=1;" vertex="1" parent="1">
          <mxGeometry x="355" y="550" width="130" height="100" as="geometry" />
        </mxCell>
        <mxCell id="v-GOKkK2tIxpZZ67Loet-36" style="edgeStyle=orthogonalEdgeStyle;rounded=0;orthogonalLoop=1;jettySize=auto;html=1;" edge="1" parent="1" source="v-GOKkK2tIxpZZ67Loet-6" target="v-GOKkK2tIxpZZ67Loet-18">
          <mxGeometry relative="1" as="geometry" />
        </mxCell>
        <mxCell id="v-GOKkK2tIxpZZ67Loet-74" value="true" style="edgeLabel;html=1;align=center;verticalAlign=middle;resizable=0;points=[];" vertex="1" connectable="0" parent="v-GOKkK2tIxpZZ67Loet-36">
          <mxGeometry x="-0.0296" y="-2" relative="1" as="geometry">
            <mxPoint as="offset" />
          </mxGeometry>
        </mxCell>
        <mxCell id="v-GOKkK2tIxpZZ67Loet-38" style="edgeStyle=orthogonalEdgeStyle;rounded=0;orthogonalLoop=1;jettySize=auto;html=1;entryX=0.5;entryY=0;entryDx=0;entryDy=0;" edge="1" parent="1" source="v-GOKkK2tIxpZZ67Loet-6" target="v-GOKkK2tIxpZZ67Loet-7">
          <mxGeometry relative="1" as="geometry" />
        </mxCell>
        <mxCell id="v-GOKkK2tIxpZZ67Loet-85" value="false" style="edgeLabel;html=1;align=center;verticalAlign=middle;resizable=0;points=[];" vertex="1" connectable="0" parent="v-GOKkK2tIxpZZ67Loet-38">
          <mxGeometry x="-0.208" y="1" relative="1" as="geometry">
            <mxPoint as="offset" />
          </mxGeometry>
        </mxCell>
        <mxCell id="v-GOKkK2tIxpZZ67Loet-6" value="x&amp;gt;=22 and y=6 or x&amp;lt;=22 and y=7" style="rhombus;whiteSpace=wrap;html=1;" vertex="1" parent="1">
          <mxGeometry x="355" y="690" width="130" height="100" as="geometry" />
        </mxCell>
        <mxCell id="v-GOKkK2tIxpZZ67Loet-39" style="edgeStyle=orthogonalEdgeStyle;rounded=0;orthogonalLoop=1;jettySize=auto;html=1;entryX=0;entryY=0.5;entryDx=0;entryDy=0;" edge="1" parent="1" source="v-GOKkK2tIxpZZ67Loet-7" target="v-GOKkK2tIxpZZ67Loet-19">
          <mxGeometry relative="1" as="geometry" />
        </mxCell>
        <mxCell id="v-GOKkK2tIxpZZ67Loet-75" value="true" style="edgeLabel;html=1;align=center;verticalAlign=middle;resizable=0;points=[];" vertex="1" connectable="0" parent="v-GOKkK2tIxpZZ67Loet-39">
          <mxGeometry x="0.0568" y="2" relative="1" as="geometry">
            <mxPoint as="offset" />
          </mxGeometry>
        </mxCell>
        <mxCell id="v-GOKkK2tIxpZZ67Loet-40" style="edgeStyle=orthogonalEdgeStyle;rounded=0;orthogonalLoop=1;jettySize=auto;html=1;entryX=0.5;entryY=0;entryDx=0;entryDy=0;" edge="1" parent="1" source="v-GOKkK2tIxpZZ67Loet-7" target="v-GOKkK2tIxpZZ67Loet-8">
          <mxGeometry relative="1" as="geometry" />
        </mxCell>
        <mxCell id="v-GOKkK2tIxpZZ67Loet-86" value="false" style="edgeLabel;html=1;align=center;verticalAlign=middle;resizable=0;points=[];" vertex="1" connectable="0" parent="v-GOKkK2tIxpZZ67Loet-40">
          <mxGeometry x="-0.0733" y="2" relative="1" as="geometry">
            <mxPoint as="offset" />
          </mxGeometry>
        </mxCell>
        <mxCell id="v-GOKkK2tIxpZZ67Loet-7" value="x&amp;gt;=23 and y=7 or x&amp;lt;=22 and y=8" style="rhombus;whiteSpace=wrap;html=1;" vertex="1" parent="1">
          <mxGeometry x="355" y="840" width="130" height="100" as="geometry" />
        </mxCell>
        <mxCell id="v-GOKkK2tIxpZZ67Loet-42" style="edgeStyle=orthogonalEdgeStyle;rounded=0;orthogonalLoop=1;jettySize=auto;html=1;" edge="1" parent="1" source="v-GOKkK2tIxpZZ67Loet-8" target="v-GOKkK2tIxpZZ67Loet-20">
          <mxGeometry relative="1" as="geometry" />
        </mxCell>
        <mxCell id="v-GOKkK2tIxpZZ67Loet-76" value="true" style="edgeLabel;html=1;align=center;verticalAlign=middle;resizable=0;points=[];" vertex="1" connectable="0" parent="v-GOKkK2tIxpZZ67Loet-42">
          <mxGeometry x="0.0691" y="-1" relative="1" as="geometry">
            <mxPoint as="offset" />
          </mxGeometry>
        </mxCell>
        <mxCell id="v-GOKkK2tIxpZZ67Loet-43" style="edgeStyle=orthogonalEdgeStyle;rounded=0;orthogonalLoop=1;jettySize=auto;html=1;entryX=0.5;entryY=0;entryDx=0;entryDy=0;" edge="1" parent="1" source="v-GOKkK2tIxpZZ67Loet-8" target="v-GOKkK2tIxpZZ67Loet-9">
          <mxGeometry relative="1" as="geometry" />
        </mxCell>
        <mxCell id="v-GOKkK2tIxpZZ67Loet-87" value="false" style="edgeLabel;html=1;align=center;verticalAlign=middle;resizable=0;points=[];" vertex="1" connectable="0" parent="v-GOKkK2tIxpZZ67Loet-43">
          <mxGeometry x="-0.01" relative="1" as="geometry">
            <mxPoint as="offset" />
          </mxGeometry>
        </mxCell>
        <mxCell id="v-GOKkK2tIxpZZ67Loet-8" value="x&amp;gt;=23 and y=8 or x&amp;lt;=22 and y=9" style="rhombus;whiteSpace=wrap;html=1;" vertex="1" parent="1">
          <mxGeometry x="355" y="1000" width="130" height="100" as="geometry" />
        </mxCell>
        <mxCell id="v-GOKkK2tIxpZZ67Loet-44" style="edgeStyle=orthogonalEdgeStyle;rounded=0;orthogonalLoop=1;jettySize=auto;html=1;" edge="1" parent="1" source="v-GOKkK2tIxpZZ67Loet-9" target="v-GOKkK2tIxpZZ67Loet-21">
          <mxGeometry relative="1" as="geometry" />
        </mxCell>
        <mxCell id="v-GOKkK2tIxpZZ67Loet-77" value="true" style="edgeLabel;html=1;align=center;verticalAlign=middle;resizable=0;points=[];" vertex="1" connectable="0" parent="v-GOKkK2tIxpZZ67Loet-44">
          <mxGeometry x="0.0938" y="1" relative="1" as="geometry">
            <mxPoint as="offset" />
          </mxGeometry>
        </mxCell>
        <mxCell id="v-GOKkK2tIxpZZ67Loet-45" style="edgeStyle=orthogonalEdgeStyle;rounded=0;orthogonalLoop=1;jettySize=auto;html=1;entryX=0.5;entryY=0;entryDx=0;entryDy=0;" edge="1" parent="1" source="v-GOKkK2tIxpZZ67Loet-9" target="v-GOKkK2tIxpZZ67Loet-10">
          <mxGeometry relative="1" as="geometry" />
        </mxCell>
        <mxCell id="v-GOKkK2tIxpZZ67Loet-88" value="false" style="edgeLabel;html=1;align=center;verticalAlign=middle;resizable=0;points=[];" vertex="1" connectable="0" parent="v-GOKkK2tIxpZZ67Loet-45">
          <mxGeometry x="-0.088" y="1" relative="1" as="geometry">
            <mxPoint as="offset" />
          </mxGeometry>
        </mxCell>
        <mxCell id="v-GOKkK2tIxpZZ67Loet-9" value="x&amp;gt;=23 and y=9 or x&amp;lt;=23 and y=10" style="rhombus;whiteSpace=wrap;html=1;" vertex="1" parent="1">
          <mxGeometry x="355" y="1140" width="130" height="100" as="geometry" />
        </mxCell>
        <mxCell id="v-GOKkK2tIxpZZ67Loet-46" style="edgeStyle=orthogonalEdgeStyle;rounded=0;orthogonalLoop=1;jettySize=auto;html=1;" edge="1" parent="1" source="v-GOKkK2tIxpZZ67Loet-10" target="v-GOKkK2tIxpZZ67Loet-22">
          <mxGeometry relative="1" as="geometry" />
        </mxCell>
        <mxCell id="v-GOKkK2tIxpZZ67Loet-78" value="true" style="edgeLabel;html=1;align=center;verticalAlign=middle;resizable=0;points=[];" vertex="1" connectable="0" parent="v-GOKkK2tIxpZZ67Loet-46">
          <mxGeometry x="0.0074" y="-1" relative="1" as="geometry">
            <mxPoint as="offset" />
          </mxGeometry>
        </mxCell>
        <mxCell id="v-GOKkK2tIxpZZ67Loet-47" style="edgeStyle=orthogonalEdgeStyle;rounded=0;orthogonalLoop=1;jettySize=auto;html=1;entryX=0.5;entryY=0;entryDx=0;entryDy=0;" edge="1" parent="1" source="v-GOKkK2tIxpZZ67Loet-10" target="v-GOKkK2tIxpZZ67Loet-11">
          <mxGeometry relative="1" as="geometry" />
        </mxCell>
        <mxCell id="v-GOKkK2tIxpZZ67Loet-89" value="false" style="edgeLabel;html=1;align=center;verticalAlign=middle;resizable=0;points=[];" vertex="1" connectable="0" parent="v-GOKkK2tIxpZZ67Loet-47">
          <mxGeometry x="0.16" y="-2" relative="1" as="geometry">
            <mxPoint as="offset" />
          </mxGeometry>
        </mxCell>
        <mxCell id="v-GOKkK2tIxpZZ67Loet-10" value="x&amp;gt;=24 and y=10 or x&amp;lt;=22 and y=11" style="rhombus;whiteSpace=wrap;html=1;" vertex="1" parent="1">
          <mxGeometry x="355" y="1290" width="130" height="100" as="geometry" />
        </mxCell>
        <mxCell id="v-GOKkK2tIxpZZ67Loet-48" style="edgeStyle=orthogonalEdgeStyle;rounded=0;orthogonalLoop=1;jettySize=auto;html=1;" edge="1" parent="1" source="v-GOKkK2tIxpZZ67Loet-11" target="v-GOKkK2tIxpZZ67Loet-23">
          <mxGeometry relative="1" as="geometry" />
        </mxCell>
        <mxCell id="v-GOKkK2tIxpZZ67Loet-79" value="true" style="edgeLabel;html=1;align=center;verticalAlign=middle;resizable=0;points=[];" vertex="1" connectable="0" parent="v-GOKkK2tIxpZZ67Loet-48">
          <mxGeometry x="0.0074" y="-2" relative="1" as="geometry">
            <mxPoint as="offset" />
          </mxGeometry>
        </mxCell>
        <mxCell id="v-GOKkK2tIxpZZ67Loet-49" style="edgeStyle=orthogonalEdgeStyle;rounded=0;orthogonalLoop=1;jettySize=auto;html=1;entryX=0.5;entryY=0;entryDx=0;entryDy=0;" edge="1" parent="1" source="v-GOKkK2tIxpZZ67Loet-11" target="v-GOKkK2tIxpZZ67Loet-12">
          <mxGeometry relative="1" as="geometry" />
        </mxCell>
        <mxCell id="v-GOKkK2tIxpZZ67Loet-90" value="false" style="edgeLabel;html=1;align=center;verticalAlign=middle;resizable=0;points=[];" vertex="1" connectable="0" parent="v-GOKkK2tIxpZZ67Loet-49">
          <mxGeometry x="-0.1067" y="1" relative="1" as="geometry">
            <mxPoint as="offset" />
          </mxGeometry>
        </mxCell>
        <mxCell id="v-GOKkK2tIxpZZ67Loet-11" value="x&amp;gt;=23 and y=11 or x&amp;lt;=21 and y=12" style="rhombus;whiteSpace=wrap;html=1;" vertex="1" parent="1">
          <mxGeometry x="355" y="1450" width="130" height="100" as="geometry" />
        </mxCell>
        <mxCell id="v-GOKkK2tIxpZZ67Loet-50" style="edgeStyle=orthogonalEdgeStyle;rounded=0;orthogonalLoop=1;jettySize=auto;html=1;entryX=0;entryY=0.5;entryDx=0;entryDy=0;" edge="1" parent="1" source="v-GOKkK2tIxpZZ67Loet-12" target="v-GOKkK2tIxpZZ67Loet-24">
          <mxGeometry relative="1" as="geometry" />
        </mxCell>
        <mxCell id="v-GOKkK2tIxpZZ67Loet-80" value="true" style="edgeLabel;html=1;align=center;verticalAlign=middle;resizable=0;points=[];" vertex="1" connectable="0" parent="v-GOKkK2tIxpZZ67Loet-50">
          <mxGeometry x="-0.042" y="-2" relative="1" as="geometry">
            <mxPoint as="offset" />
          </mxGeometry>
        </mxCell>
        <mxCell id="v-GOKkK2tIxpZZ67Loet-51" style="edgeStyle=orthogonalEdgeStyle;rounded=0;orthogonalLoop=1;jettySize=auto;html=1;entryX=0.5;entryY=0;entryDx=0;entryDy=0;" edge="1" parent="1" source="v-GOKkK2tIxpZZ67Loet-12" target="v-GOKkK2tIxpZZ67Loet-13">
          <mxGeometry relative="1" as="geometry" />
        </mxCell>
        <mxCell id="v-GOKkK2tIxpZZ67Loet-91" value="false" style="edgeLabel;html=1;align=center;verticalAlign=middle;resizable=0;points=[];" vertex="1" connectable="0" parent="v-GOKkK2tIxpZZ67Loet-51">
          <mxGeometry x="-0.1733" y="-2" relative="1" as="geometry">
            <mxPoint as="offset" />
          </mxGeometry>
        </mxCell>
        <mxCell id="v-GOKkK2tIxpZZ67Loet-12" value="x&amp;gt;=22 and y=12 or x&amp;lt;=19 and y=1" style="rhombus;whiteSpace=wrap;html=1;" vertex="1" parent="1">
          <mxGeometry x="355" y="1610" width="130" height="100" as="geometry" />
        </mxCell>
        <mxCell id="v-GOKkK2tIxpZZ67Loet-52" style="edgeStyle=orthogonalEdgeStyle;rounded=0;orthogonalLoop=1;jettySize=auto;html=1;entryX=0;entryY=0.5;entryDx=0;entryDy=0;" edge="1" parent="1" source="v-GOKkK2tIxpZZ67Loet-13" target="v-GOKkK2tIxpZZ67Loet-25">
          <mxGeometry relative="1" as="geometry" />
        </mxCell>
        <mxCell id="v-GOKkK2tIxpZZ67Loet-81" value="true" style="edgeLabel;html=1;align=center;verticalAlign=middle;resizable=0;points=[];" vertex="1" connectable="0" parent="v-GOKkK2tIxpZZ67Loet-52">
          <mxGeometry x="-0.0667" y="-1" relative="1" as="geometry">
            <mxPoint as="offset" />
          </mxGeometry>
        </mxCell>
        <mxCell id="v-GOKkK2tIxpZZ67Loet-53" style="edgeStyle=orthogonalEdgeStyle;rounded=0;orthogonalLoop=1;jettySize=auto;html=1;entryX=0.5;entryY=0;entryDx=0;entryDy=0;" edge="1" parent="1" source="v-GOKkK2tIxpZZ67Loet-13" target="v-GOKkK2tIxpZZ67Loet-14">
          <mxGeometry relative="1" as="geometry" />
        </mxCell>
        <mxCell id="v-GOKkK2tIxpZZ67Loet-92" value="false" style="edgeLabel;html=1;align=center;verticalAlign=middle;resizable=0;points=[];" vertex="1" connectable="0" parent="v-GOKkK2tIxpZZ67Loet-53">
          <mxGeometry x="-0.048" relative="1" as="geometry">
            <mxPoint as="offset" />
          </mxGeometry>
        </mxCell>
        <mxCell id="v-GOKkK2tIxpZZ67Loet-13" value="x&amp;gt;=20 and y=1 or x&amp;lt;=18 and y=2" style="rhombus;whiteSpace=wrap;html=1;" vertex="1" parent="1">
          <mxGeometry x="355" y="1770" width="130" height="100" as="geometry" />
        </mxCell>
        <mxCell id="v-GOKkK2tIxpZZ67Loet-54" style="edgeStyle=orthogonalEdgeStyle;rounded=0;orthogonalLoop=1;jettySize=auto;html=1;entryX=0;entryY=0.5;entryDx=0;entryDy=0;" edge="1" parent="1" source="v-GOKkK2tIxpZZ67Loet-14" target="v-GOKkK2tIxpZZ67Loet-26">
          <mxGeometry relative="1" as="geometry" />
        </mxCell>
        <mxCell id="v-GOKkK2tIxpZZ67Loet-82" value="true" style="edgeLabel;html=1;align=center;verticalAlign=middle;resizable=0;points=[];" vertex="1" connectable="0" parent="v-GOKkK2tIxpZZ67Loet-54">
          <mxGeometry x="-0.0049" y="2" relative="1" as="geometry">
            <mxPoint as="offset" />
          </mxGeometry>
        </mxCell>
        <mxCell id="v-GOKkK2tIxpZZ67Loet-14" value="x&amp;gt;=19 and y=2 or x&amp;lt;=20 and y=3" style="rhombus;whiteSpace=wrap;html=1;" vertex="1" parent="1">
          <mxGeometry x="355" y="1920" width="130" height="100" as="geometry" />
        </mxCell>
        <mxCell id="v-GOKkK2tIxpZZ67Loet-59" style="edgeStyle=orthogonalEdgeStyle;rounded=0;orthogonalLoop=1;jettySize=auto;html=1;entryX=0.5;entryY=0;entryDx=0;entryDy=0;" edge="1" parent="1" source="v-GOKkK2tIxpZZ67Loet-15" target="v-GOKkK2tIxpZZ67Loet-27">
          <mxGeometry relative="1" as="geometry">
            <mxPoint x="940" y="950" as="targetPoint" />
          </mxGeometry>
        </mxCell>
        <mxCell id="v-GOKkK2tIxpZZ67Loet-15" value="Bạch Dương" style="shape=parallelogram;perimeter=parallelogramPerimeter;whiteSpace=wrap;html=1;fixedSize=1;" vertex="1" parent="1">
          <mxGeometry x="610" y="290" width="120" height="60" as="geometry" />
        </mxCell>
        <mxCell id="v-GOKkK2tIxpZZ67Loet-69" style="edgeStyle=orthogonalEdgeStyle;rounded=0;orthogonalLoop=1;jettySize=auto;html=1;" edge="1" parent="1" source="v-GOKkK2tIxpZZ67Loet-16">
          <mxGeometry relative="1" as="geometry">
            <mxPoint x="940" y="460" as="targetPoint" />
          </mxGeometry>
        </mxCell>
        <mxCell id="v-GOKkK2tIxpZZ67Loet-16" value="Kim Ngư" style="shape=parallelogram;perimeter=parallelogramPerimeter;whiteSpace=wrap;html=1;fixedSize=1;" vertex="1" parent="1">
          <mxGeometry x="610" y="430" width="120" height="60" as="geometry" />
        </mxCell>
        <mxCell id="v-GOKkK2tIxpZZ67Loet-68" style="edgeStyle=orthogonalEdgeStyle;rounded=0;orthogonalLoop=1;jettySize=auto;html=1;" edge="1" parent="1" source="v-GOKkK2tIxpZZ67Loet-17">
          <mxGeometry relative="1" as="geometry">
            <mxPoint x="940" y="600" as="targetPoint" />
          </mxGeometry>
        </mxCell>
        <mxCell id="v-GOKkK2tIxpZZ67Loet-17" value="Song Tử" style="shape=parallelogram;perimeter=parallelogramPerimeter;whiteSpace=wrap;html=1;fixedSize=1;" vertex="1" parent="1">
          <mxGeometry x="610" y="570" width="120" height="60" as="geometry" />
        </mxCell>
        <mxCell id="v-GOKkK2tIxpZZ67Loet-67" style="edgeStyle=orthogonalEdgeStyle;rounded=0;orthogonalLoop=1;jettySize=auto;html=1;" edge="1" parent="1" source="v-GOKkK2tIxpZZ67Loet-18">
          <mxGeometry relative="1" as="geometry">
            <mxPoint x="940" y="740" as="targetPoint" />
          </mxGeometry>
        </mxCell>
        <mxCell id="v-GOKkK2tIxpZZ67Loet-18" value="Cự Giải" style="shape=parallelogram;perimeter=parallelogramPerimeter;whiteSpace=wrap;html=1;fixedSize=1;" vertex="1" parent="1">
          <mxGeometry x="610" y="710" width="120" height="60" as="geometry" />
        </mxCell>
        <mxCell id="v-GOKkK2tIxpZZ67Loet-66" style="edgeStyle=orthogonalEdgeStyle;rounded=0;orthogonalLoop=1;jettySize=auto;html=1;" edge="1" parent="1" source="v-GOKkK2tIxpZZ67Loet-19">
          <mxGeometry relative="1" as="geometry">
            <mxPoint x="940" y="890" as="targetPoint" />
          </mxGeometry>
        </mxCell>
        <mxCell id="v-GOKkK2tIxpZZ67Loet-19" value="Sư Tử" style="shape=parallelogram;perimeter=parallelogramPerimeter;whiteSpace=wrap;html=1;fixedSize=1;" vertex="1" parent="1">
          <mxGeometry x="610" y="860" width="120" height="60" as="geometry" />
        </mxCell>
        <mxCell id="v-GOKkK2tIxpZZ67Loet-65" style="edgeStyle=orthogonalEdgeStyle;rounded=0;orthogonalLoop=1;jettySize=auto;html=1;entryX=0;entryY=0.5;entryDx=0;entryDy=0;" edge="1" parent="1" source="v-GOKkK2tIxpZZ67Loet-20" target="v-GOKkK2tIxpZZ67Loet-27">
          <mxGeometry relative="1" as="geometry" />
        </mxCell>
        <mxCell id="v-GOKkK2tIxpZZ67Loet-20" value="Xử Nữ" style="shape=parallelogram;perimeter=parallelogramPerimeter;whiteSpace=wrap;html=1;fixedSize=1;" vertex="1" parent="1">
          <mxGeometry x="610" y="1020" width="120" height="60" as="geometry" />
        </mxCell>
        <mxCell id="v-GOKkK2tIxpZZ67Loet-64" style="edgeStyle=orthogonalEdgeStyle;rounded=0;orthogonalLoop=1;jettySize=auto;html=1;" edge="1" parent="1" source="v-GOKkK2tIxpZZ67Loet-21">
          <mxGeometry relative="1" as="geometry">
            <mxPoint x="940" y="1190" as="targetPoint" />
          </mxGeometry>
        </mxCell>
        <mxCell id="v-GOKkK2tIxpZZ67Loet-21" value="Thiên Bình" style="shape=parallelogram;perimeter=parallelogramPerimeter;whiteSpace=wrap;html=1;fixedSize=1;" vertex="1" parent="1">
          <mxGeometry x="610" y="1160" width="120" height="60" as="geometry" />
        </mxCell>
        <mxCell id="v-GOKkK2tIxpZZ67Loet-63" style="edgeStyle=orthogonalEdgeStyle;rounded=0;orthogonalLoop=1;jettySize=auto;html=1;" edge="1" parent="1" source="v-GOKkK2tIxpZZ67Loet-22">
          <mxGeometry relative="1" as="geometry">
            <mxPoint x="940" y="1340" as="targetPoint" />
          </mxGeometry>
        </mxCell>
        <mxCell id="v-GOKkK2tIxpZZ67Loet-22" value="Bọ Cạp" style="shape=parallelogram;perimeter=parallelogramPerimeter;whiteSpace=wrap;html=1;fixedSize=1;" vertex="1" parent="1">
          <mxGeometry x="610" y="1310" width="120" height="60" as="geometry" />
        </mxCell>
        <mxCell id="v-GOKkK2tIxpZZ67Loet-62" style="edgeStyle=orthogonalEdgeStyle;rounded=0;orthogonalLoop=1;jettySize=auto;html=1;" edge="1" parent="1" source="v-GOKkK2tIxpZZ67Loet-23">
          <mxGeometry relative="1" as="geometry">
            <mxPoint x="940" y="1500" as="targetPoint" />
          </mxGeometry>
        </mxCell>
        <mxCell id="v-GOKkK2tIxpZZ67Loet-23" value="Nhân Mã" style="shape=parallelogram;perimeter=parallelogramPerimeter;whiteSpace=wrap;html=1;fixedSize=1;" vertex="1" parent="1">
          <mxGeometry x="610" y="1470" width="120" height="60" as="geometry" />
        </mxCell>
        <mxCell id="v-GOKkK2tIxpZZ67Loet-61" style="edgeStyle=orthogonalEdgeStyle;rounded=0;orthogonalLoop=1;jettySize=auto;html=1;" edge="1" parent="1" source="v-GOKkK2tIxpZZ67Loet-24">
          <mxGeometry relative="1" as="geometry">
            <mxPoint x="940" y="1660" as="targetPoint" />
          </mxGeometry>
        </mxCell>
        <mxCell id="v-GOKkK2tIxpZZ67Loet-24" value="Ma Kết" style="shape=parallelogram;perimeter=parallelogramPerimeter;whiteSpace=wrap;html=1;fixedSize=1;" vertex="1" parent="1">
          <mxGeometry x="610" y="1630" width="120" height="60" as="geometry" />
        </mxCell>
        <mxCell id="v-GOKkK2tIxpZZ67Loet-60" style="edgeStyle=orthogonalEdgeStyle;rounded=0;orthogonalLoop=1;jettySize=auto;html=1;" edge="1" parent="1" source="v-GOKkK2tIxpZZ67Loet-25">
          <mxGeometry relative="1" as="geometry">
            <mxPoint x="940" y="1820" as="targetPoint" />
          </mxGeometry>
        </mxCell>
        <mxCell id="v-GOKkK2tIxpZZ67Loet-25" value="Bảo Bình" style="shape=parallelogram;perimeter=parallelogramPerimeter;whiteSpace=wrap;html=1;fixedSize=1;" vertex="1" parent="1">
          <mxGeometry x="610" y="1790" width="120" height="60" as="geometry" />
        </mxCell>
        <mxCell id="v-GOKkK2tIxpZZ67Loet-56" style="edgeStyle=orthogonalEdgeStyle;rounded=0;orthogonalLoop=1;jettySize=auto;html=1;entryX=0.492;entryY=1.039;entryDx=0;entryDy=0;entryPerimeter=0;" edge="1" parent="1" source="v-GOKkK2tIxpZZ67Loet-26" target="v-GOKkK2tIxpZZ67Loet-27">
          <mxGeometry relative="1" as="geometry">
            <mxPoint x="940" y="1110" as="targetPoint" />
          </mxGeometry>
        </mxCell>
        <mxCell id="v-GOKkK2tIxpZZ67Loet-26" value="Song Ngư" style="shape=parallelogram;perimeter=parallelogramPerimeter;whiteSpace=wrap;html=1;fixedSize=1;" vertex="1" parent="1">
          <mxGeometry x="610" y="1940" width="120" height="60" as="geometry" />
        </mxCell>
        <mxCell id="v-GOKkK2tIxpZZ67Loet-27" value="end" style="ellipse;whiteSpace=wrap;html=1;" vertex="1" parent="1">
          <mxGeometry x="880" y="1010" width="120" height="80" as="geometry" />
        </mxCell>
      </root>
    </mxGraphModel>
  </diagram>
</mxfile>
